<?xml version="1.0" encoding="UTF-8"?><svg class="scheme-objects-view__scheme-svg" viewBox="0 0 3000 3500" width="1041.6667" height="1215" version="1.1"><g class="scheme-objects-view__label">
<circle cx="1964" cy="1280" fill="#ffffff" r="8" x="1964" y="1280"></circle>
<circle cx="1964" cy="1280" fill="#0078bf" r="5" x="1964" y="1280"></circle>
<text font-size="20" font-weight="normal" opacity="unset" stroke="#ffffffe6" stroke-width="4" text-anchor="start" x="1976" y="1280">
<tspan dominant-baseline="inherit" dy="0.35em" text-anchor="inherit" x="1976">Бауманская</tspan>
</text>
<text font-size="20" font-weight="normal" opacity="unset" text-anchor="start" x="1976" y="1280">
<tspan dominant-baseline="inherit" dy="0.35em" text-anchor="inherit" x="1976">Бауманская</tspan>
</text>
</g><g class="scheme-objects-view__label">
<circle cx="1812" cy="1432" fill="#ffffff" r="7" x="1812" y="1432"></circle>
<circle cx="1812" cy="1432" fill="#0078bf" r="5" x="1812" y="1432"></circle>
<text font-size="20" font-weight="normal" opacity="0" stroke="#ffffffe6" stroke-width="4" text-anchor="end" x="1808" y="1398">
<tspan dominant-baseline="inherit" dy="0.75em" text-anchor="inherit" x="1808">Курская</tspan>
</text>
<text font-size="20" font-weight="normal" opacity="0" text-anchor="end" x="1808" y="1398">
<tspan dominant-baseline="inherit" dy="0.75em" text-anchor="inherit" x="1808">Курская</tspan>
</text>
</g><g class="scheme-objects-view__label">
<circle cx="1479" cy="1510" fill="#ffffff" r="7" x="1479" y="1510"></circle>
<circle cx="1479" cy="1510" fill="#0078bf" r="5" x="1479" y="1510"></circle>
<text font-size="20" font-weight="normal" opacity="unset" stroke="#ffffffe6" stroke-width="4" text-anchor="start" x="1496" y="1515">
<tspan dominant-baseline="inherit" dy="0.75em" text-anchor="inherit" x="1496">Площадь Революции</tspan>
</text>
<text font-size="20" font-weight="normal" opacity="unset" text-anchor="start" x="1496" y="1515">
<tspan dominant-baseline="inherit" dy="0.75em" text-anchor="inherit" x="1496">Площадь Революции</tspan>
</text>
</g><g class="scheme-objects-view__label">
<circle cx="1479" cy="1462" fill="#ffffff" r="7" x="1479" y="1462"></circle>
<circle cx="1479" cy="1462" fill="#da2128" r="5" x="1479" y="1462"></circle>
<text font-size="20" font-weight="normal" opacity="unset" stroke="#ffffffe6" stroke-width="4" text-anchor="start" x="1495" y="1462">
<tspan dominant-baseline="inherit" dy="0.35em" text-anchor="inherit" x="1495">Охотный Ряд</tspan>
</text>
<text font-size="20" font-weight="normal" opacity="unset" text-anchor="start" x="1495" y="1462">
<tspan dominant-baseline="inherit" dy="0.35em" text-anchor="inherit" x="1495">Охотный Ряд</tspan>
</text>
</g><g class="scheme-objects-view__label">
<circle cx="1350" cy="1591" fill="#ffffff" r="7" x="1350" y="1591"></circle>
<circle cx="1350" cy="1591" fill="#da2128" r="5" x="1350" y="1591"></circle>
<text font-size="20" font-weight="normal" opacity="unset" stroke="#ffffffe6" stroke-width="4" text-anchor="start" x="1364" y="1586">
<tspan dominant-baseline="inherit" dy="0.75em" text-anchor="inherit" x="1364">Библиотека</tspan>
<tspan dominant-baseline="inherit" dy="19" text-anchor="inherit" x="1364">имени Ленина</tspan>
</text>
<text font-size="20" font-weight="normal" opacity="unset" text-anchor="start" x="1364" y="1586">
<tspan dominant-baseline="inherit" dy="0.75em" text-anchor="inherit" x="1364">Библиотека</tspan>
<tspan dominant-baseline="inherit" dy="19" text-anchor="inherit" x="1364">имени Ленина</tspan>
</text>
</g><g class="scheme-objects-view__label">
<circle cx="1290" cy="1651" fill="#ffffff" r="8" x="1290" y="1651"></circle>
<circle cx="1290" cy="1651" fill="#da2128" r="5" x="1290" y="1651"></circle>
<text font-size="20" font-weight="normal" opacity="unset" stroke="#ffffffe6" stroke-width="4" text-anchor="start" x="1297" y="1656">
<tspan dominant-baseline="inherit" dy="0.75em" text-anchor="inherit" x="1297">Кропоткинская</tspan>
</text>
<text font-size="20" font-weight="normal" opacity="unset" text-anchor="start" x="1297" y="1656">
<tspan dominant-baseline="inherit" dy="0.75em" text-anchor="inherit" x="1297">Кропоткинская</tspan>
</text>
</g><g class="scheme-objects-view__label">
<circle cx="1233" cy="1705" fill="#ffffff" r="7" x="1233" y="1705"></circle>
<circle cx="1233" cy="1705" fill="#da2128" r="5" x="1233" y="1705"></circle>
<text font-size="20" font-weight="normal" opacity="unset" stroke="#ffffffe6" stroke-width="4" text-anchor="start" x="1239" y="1718">
<tspan dominant-baseline="inherit" dy="0.75em" text-anchor="inherit" x="1239">Парк культуры</tspan>
</text>
<text font-size="20" font-weight="normal" opacity="unset" text-anchor="start" x="1239" y="1718">
<tspan dominant-baseline="inherit" dy="0.75em" text-anchor="inherit" x="1239">Парк культуры</tspan>
</text>
</g><g class="scheme-objects-view__label">
<circle cx="1173" cy="1764" fill="#ffffff" r="8" x="1173" y="1764"></circle>
<circle cx="1173" cy="1764" fill="#da2128" r="5" x="1173" y="1764"></circle>
<text font-size="20" font-weight="normal" opacity="unset" stroke="#ffffffe6" stroke-width="4" text-anchor="start" x="1185" y="1764">
<tspan dominant-baseline="inherit" dy="0.35em" text-anchor="inherit" x="1185">Фрунзенская</tspan>
</text>
<text font-size="20" font-weight="normal" opacity="unset" text-anchor="start" x="1185" y="1764">
<tspan dominant-baseline="inherit" dy="0.35em" text-anchor="inherit" x="1185">Фрунзенская</tspan>
</text>
</g><g class="scheme-objects-view__label">
<circle cx="1113" cy="1824" fill="#ffffff" r="7" x="1113" y="1824"></circle>
<circle cx="1113" cy="1824" fill="#da2128" r="5" x="1113" y="1824"></circle>
<text font-size="20" font-weight="normal" opacity="unset" stroke="#ffffffe6" stroke-width="4" text-anchor="start" x="1119" y="1830">
<tspan dominant-baseline="inherit" dy="0.75em" text-anchor="inherit" x="1119">Спортивная</tspan>
</text>
<text font-size="20" font-weight="normal" opacity="unset" text-anchor="start" x="1119" y="1830">
<tspan dominant-baseline="inherit" dy="0.75em" text-anchor="inherit" x="1119">Спортивная</tspan>
</text>
</g><g class="scheme-objects-view__label">
<circle cx="1048" cy="1903" fill="#ffffff" r="8" x="1048" y="1903"></circle>
<circle cx="1048" cy="1903" fill="#da2128" r="5" x="1048" y="1903"></circle>
<text font-size="20" font-weight="normal" opacity="unset" stroke="#ffffffe6" stroke-width="4" text-anchor="end" x="1036" y="1903">
<tspan dominant-baseline="inherit" dy="0.35em" text-anchor="inherit" x="1036">Воробьёвы горы</tspan>
</text>
<text font-size="20" font-weight="normal" opacity="unset" text-anchor="end" x="1036" y="1903">
<tspan dominant-baseline="inherit" dy="0.35em" text-anchor="inherit" x="1036">Воробьёвы горы</tspan>
</text>
</g><g class="scheme-objects-view__label">
<circle cx="1048" cy="2006" fill="#ffffff" r="8" x="1048" y="2006"></circle>
<circle cx="1048" cy="2006" fill="#da2128" r="5" x="1048" y="2006"></circle>
<text font-size="20" font-weight="normal" opacity="unset" stroke="#ffffffe6" stroke-width="4" text-anchor="end" x="1036" y="2006">
<tspan dominant-baseline="inherit" dy="0.35em" text-anchor="inherit" x="1036">Университет</tspan>
</text>
<text font-size="20" font-weight="normal" opacity="unset" text-anchor="end" x="1036" y="2006">
<tspan dominant-baseline="inherit" dy="0.35em" text-anchor="inherit" x="1036">Университет</tspan>
</text>
</g><g class="scheme-objects-view__label">
<circle cx="1048" cy="2107" fill="#ffffff" r="7" x="1048" y="2107"></circle>
<circle cx="1048" cy="2107" fill="#da2128" r="5" x="1048" y="2107"></circle>
<text font-size="20" font-weight="normal" opacity="0" stroke="#ffffffe6" stroke-width="4" text-anchor="end" x="1033" y="2099">
<tspan dominant-baseline="inherit" dy="0.75em" text-anchor="inherit" x="1033">Проспект</tspan>
<tspan dominant-baseline="inherit" dy="19" text-anchor="inherit" x="1033">Вернадского</tspan>
</text>
<text font-size="20" font-weight="normal" opacity="0" text-anchor="end" x="1033" y="2099">
<tspan dominant-baseline="inherit" dy="0.75em" text-anchor="inherit" x="1033">Проспект</tspan>
<tspan dominant-baseline="inherit" dy="19" text-anchor="inherit" x="1033">Вернадского</tspan>
</text>
</g><g class="scheme-objects-view__label">
<circle cx="1048" cy="2200" fill="#ffffff" r="8" x="1048" y="2200"></circle>
<circle cx="1048" cy="2200" fill="#da2128" r="5" x="1048" y="2200"></circle>
<text font-size="20" font-weight="normal" opacity="unset" stroke="#ffffffe6" stroke-width="4" text-anchor="start" x="1060" y="2200">
<tspan dominant-baseline="inherit" dy="0.35em" text-anchor="inherit" x="1060">Юго-Западная</tspan>
</text>
<text font-size="20" font-weight="normal" opacity="unset" text-anchor="start" x="1060" y="2200">
<tspan dominant-baseline="inherit" dy="0.35em" text-anchor="inherit" x="1060">Юго-Западная</tspan>
</text>
</g><g class="scheme-objects-view__label">
<circle cx="1048" cy="2260" fill="#ffffff" r="8" x="1048" y="2260"></circle>
<circle cx="1048" cy="2260" fill="#da2128" r="5" x="1048" y="2260"></circle>
<text font-size="20" font-weight="normal" opacity="unset" stroke="#ffffffe6" stroke-width="4" text-anchor="start" x="1060" y="2260">
<tspan dominant-baseline="inherit" dy="0.35em" text-anchor="inherit" x="1060">Тропарёво</tspan>
</text>
<text font-size="20" font-weight="normal" opacity="unset" text-anchor="start" x="1060" y="2260">
<tspan dominant-baseline="inherit" dy="0.35em" text-anchor="inherit" x="1060">Тропарёво</tspan>
</text>
</g><g class="scheme-objects-view__label">
<circle cx="1048" cy="2320" fill="#ffffff" r="8" x="1048" y="2320"></circle>
<circle cx="1048" cy="2320" fill="#da2128" r="5" x="1048" y="2320"></circle>
<text font-size="20" font-weight="normal" opacity="unset" stroke="#ffffffe6" stroke-width="4" text-anchor="start" x="1060" y="2320">
<tspan dominant-baseline="inherit" dy="0.35em" text-anchor="inherit" x="1060">Румянцево</tspan>
</text>
<text font-size="20" font-weight="normal" opacity="unset" text-anchor="start" x="1060" y="2320">
<tspan dominant-baseline="inherit" dy="0.35em" text-anchor="inherit" x="1060">Румянцево</tspan>
</text>
</g><line fill="none" opacity="1" stroke="#0078bf" stroke-linecap="butt" stroke-width="8" x1="1964" x2="1812" y1="1280" y2="1432"></line><path d="M 1812, 1432 L 1748.14, 1495.86 Q 1734 1510 1714 1510 L 1641, 1510 Q 1621 1510 1601 1510 L 1479, 1510" fill="none" opacity="1" stroke="#0078bf" stroke-linecap="butt" stroke-width="8"></path><path d="M 1471, 1462 L 1471, 1510 A 8, 8 0 0 0 1487, 1510 L 1487, 1462 A 8, 8 0 0 0 1471, 1462" fill="#ffffff" stroke="#000000" stroke-width="2"></path><line fill="none" opacity="1" stroke="#da2128" stroke-linecap="butt" stroke-width="8" x1="1479" x2="1350" y1="1462" y2="1591"></line><line fill="none" opacity="1" stroke="#da2128" stroke-linecap="butt" stroke-width="8" x1="1350" x2="1290" y1="1591" y2="1651"></line><line fill="none" opacity="1" stroke="#da2128" stroke-linecap="butt" stroke-width="8" x1="1290" x2="1233" y1="1651" y2="1705"></line><line fill="none" opacity="1" stroke="#da2128" stroke-linecap="butt" stroke-width="8" x1="1233" x2="1173" y1="1705" y2="1764"></line><line fill="none" opacity="1" stroke="#da2128" stroke-linecap="butt" stroke-width="8" x1="1173" x2="1113" y1="1764" y2="1824"></line><path d="M 1113, 1824 L 1052.95, 1884.05 Q 1048 1889 1048 1896 L 1048, 1903" fill="none" opacity="1" stroke="#da2128" stroke-linecap="butt" stroke-width="8"></path><line fill="none" opacity="1" stroke="#da2128" stroke-linecap="butt" stroke-width="8" x1="1048" x2="1048" y1="1903" y2="2006"></line><line fill="none" opacity="1" stroke="#da2128" stroke-linecap="butt" stroke-width="8" x1="1048" x2="1048" y1="2006" y2="2107"></line><line fill="none" opacity="1" stroke="#da2128" stroke-linecap="butt" stroke-width="8" x1="1048" x2="1048" y1="2107" y2="2200"></line><line fill="none" opacity="1" stroke="#da2128" stroke-linecap="butt" stroke-width="8" x1="1048" x2="1048" y1="2200" y2="2260"></line><line fill="none" opacity="1" stroke="#da2128" stroke-linecap="butt" stroke-width="8" x1="1048" x2="1048" y1="2260" y2="2320"></line></svg>